<svg width="186" height="55" viewBox="0 0 186 55" fill="none" xmlns="http://www.w3.org/2000/svg">
<rect y="0.000488281" width="186" height="55" rx="10" fill="black"/>
<path fill-rule="evenodd" clip-rule="evenodd" d="M65.3322 14.0848C65.3322 15.237 64.9905 16.1542 64.3058 16.8389C63.5273 17.6529 62.5147 18.0599 61.2691 18.0599C60.076 18.0599 59.0606 17.6474 58.227 16.821C57.3907 15.996 56.9746 14.9717 56.9746 13.7507C56.9746 12.5283 57.3907 11.5053 58.227 10.6789C59.0606 9.85391 60.076 9.44141 61.2691 9.44141C61.8602 9.44141 62.4279 9.55691 62.9652 9.78653C63.5039 10.0175 63.9351 10.3242 64.2589 10.7078L63.5315 11.4338C62.9845 10.782 62.2308 10.4548 61.2691 10.4548C60.3984 10.4548 59.6461 10.76 59.011 11.3705C58.3758 11.9824 58.0589 12.7744 58.0589 13.7507C58.0589 14.7255 58.3758 15.5189 59.011 16.1294C59.6461 16.7413 60.3984 17.0452 61.2691 17.0452C62.1923 17.0452 62.9611 16.7385 63.5783 16.1239C63.9779 15.7238 64.2093 15.1683 64.2699 14.4533H61.2691V13.4619H65.2743C65.3129 13.6778 65.3322 13.884 65.3322 14.0848Z" fill="white"/>
<path fill-rule="evenodd" clip-rule="evenodd" d="M65.3322 14.0848C65.3322 15.237 64.9905 16.1542 64.3058 16.8389C63.5273 17.6529 62.5147 18.0599 61.2691 18.0599C60.076 18.0599 59.0606 17.6474 58.227 16.821C57.3907 15.996 56.9746 14.9717 56.9746 13.7507C56.9746 12.5283 57.3907 11.5053 58.227 10.6789C59.0606 9.85391 60.076 9.44141 61.2691 9.44141C61.8602 9.44141 62.4279 9.55691 62.9652 9.78653C63.5039 10.0175 63.9351 10.3242 64.2589 10.7078L63.5315 11.4338C62.9845 10.782 62.2308 10.4548 61.2691 10.4548C60.3984 10.4548 59.6461 10.76 59.011 11.3705C58.3758 11.9824 58.0589 12.7744 58.0589 13.7507C58.0589 14.7255 58.3758 15.5189 59.011 16.1294C59.6461 16.7413 60.3984 17.0452 61.2691 17.0452C62.1923 17.0452 62.9611 16.7385 63.5783 16.1239C63.9779 15.7238 64.2093 15.1683 64.2699 14.4533H61.2691V13.4619H65.2743C65.3129 13.6778 65.3322 13.884 65.3322 14.0848Z" stroke="white" stroke-width="0.5"/>
<path fill-rule="evenodd" clip-rule="evenodd" d="M71.6828 10.6394H67.9187V13.2546H71.3122V14.246H67.9187V16.8612H71.6828V17.876H66.8564V9.62598H71.6828V10.6394Z" fill="white"/>
<path fill-rule="evenodd" clip-rule="evenodd" d="M71.6828 10.6394H67.9187V13.2546H71.3122V14.246H67.9187V16.8612H71.6828V17.876H66.8564V9.62598H71.6828V10.6394Z" stroke="white" stroke-width="0.5"/>
<path fill-rule="evenodd" clip-rule="evenodd" d="M76.1619 17.8755H75.0997V10.6389H72.7905V9.62549H78.4711V10.6389H76.1619V17.8755Z" fill="white"/>
<path fill-rule="evenodd" clip-rule="evenodd" d="M76.1619 17.8755H75.0997V10.6389H72.7905V9.62549H78.4711V10.6389H76.1619V17.8755Z" stroke="white" stroke-width="0.5"/>
<path fill-rule="evenodd" clip-rule="evenodd" d="M82.5811 17.8755H83.6434V9.62549H82.5811V17.8755Z" fill="white"/>
<path fill-rule="evenodd" clip-rule="evenodd" d="M82.5811 17.8755H83.6434V9.62549H82.5811V17.8755Z" stroke="white" stroke-width="0.5"/>
<path fill-rule="evenodd" clip-rule="evenodd" d="M88.3543 17.8755H87.2921V10.6389H84.9829V9.62549H90.6635V10.6389H88.3543V17.8755Z" fill="white"/>
<path fill-rule="evenodd" clip-rule="evenodd" d="M88.3543 17.8755H87.2921V10.6389H84.9829V9.62549H90.6635V10.6389H88.3543V17.8755Z" stroke="white" stroke-width="0.5"/>
<path fill-rule="evenodd" clip-rule="evenodd" d="M96.1401 16.1184C96.7518 16.7372 97.5 17.0452 98.3859 17.0452C99.2704 17.0452 100.02 16.7372 100.632 16.1184C101.243 15.4997 101.551 14.7104 101.551 13.7507C101.551 12.7909 101.243 12.0003 100.632 11.3829C100.02 10.7642 99.2704 10.4548 98.3859 10.4548C97.5 10.4548 96.7518 10.7642 96.1401 11.3829C95.5297 12.0003 95.2225 12.7909 95.2225 13.7507C95.2225 14.7104 95.5297 15.4997 96.1401 16.1184ZM101.417 16.8087C100.604 17.6433 99.5942 18.0599 98.3859 18.0599C97.1776 18.0599 96.1677 17.6433 95.3561 16.8087C94.5433 15.9754 94.1382 14.9565 94.1382 13.7507C94.1382 12.5448 94.5433 11.5245 95.3561 10.6913C96.1677 9.85803 97.1776 9.44141 98.3859 9.44141C99.5873 9.44141 100.594 9.85941 101.411 10.6968C102.227 11.5342 102.635 12.5517 102.635 13.7507C102.635 14.9565 102.228 15.9754 101.417 16.8087Z" fill="white"/>
<path d="M96.1401 16.1184L95.9621 16.294L95.9623 16.2942L96.1401 16.1184ZM100.632 11.3829L100.454 11.5587L100.454 11.5589L100.632 11.3829ZM96.1401 11.3829L95.9623 11.2071L95.9623 11.2071L96.1401 11.3829ZM101.417 16.8087L101.596 16.9831L101.596 16.9831L101.417 16.8087ZM95.3561 16.8087L95.5354 16.6344L95.5351 16.6341L95.3561 16.8087ZM95.3561 10.6913L95.5351 10.8659L95.5352 10.8657L95.3561 10.6913ZM101.411 10.6968L101.591 10.5223L101.59 10.5222L101.411 10.6968ZM95.9623 16.2942C96.6221 16.9615 97.4348 17.2952 98.3859 17.2952V16.7952C97.5652 16.7952 96.8815 16.5128 96.3179 15.9426L95.9623 16.2942ZM98.3859 17.2952C99.3356 17.2952 100.15 16.9616 100.809 16.2942L100.454 15.9426C99.8902 16.5127 99.2053 16.7952 98.3859 16.7952V17.2952ZM100.809 16.2942C101.472 15.6238 101.801 14.7691 101.801 13.7507H101.301C101.301 14.6517 101.015 15.3755 100.454 15.9426L100.809 16.2942ZM101.801 13.7507C101.801 12.7324 101.472 11.8761 100.809 11.2069L100.454 11.5589C101.014 12.1244 101.301 12.8494 101.301 13.7507H101.801ZM100.809 11.2071C100.15 10.5399 99.3358 10.2048 98.3859 10.2048V10.7048C99.205 10.7048 99.89 10.9884 100.454 11.5587L100.809 11.2071ZM98.3859 10.2048C97.4345 10.2048 96.6219 10.54 95.9623 11.2071L96.3179 11.5587C96.8817 10.9883 97.5655 10.7048 98.3859 10.7048V10.2048ZM95.9623 11.2071C95.3008 11.8763 94.9725 12.7324 94.9725 13.7507H95.4725C95.4725 12.8494 95.7587 12.1243 96.3179 11.5587L95.9623 11.2071ZM94.9725 13.7507C94.9725 14.769 95.3009 15.6236 95.9621 16.294L96.3181 15.9428C95.7586 15.3757 95.4725 14.6518 95.4725 13.7507H94.9725ZM101.238 16.6342C100.474 17.4185 99.5296 17.8099 98.3859 17.8099V18.3099C99.6588 18.3099 100.734 17.868 101.596 16.9831L101.238 16.6342ZM98.3859 17.8099C97.2421 17.8099 96.2978 17.4185 95.5354 16.6344L95.1769 16.9829C96.0375 17.8681 97.113 18.3099 98.3859 18.3099V17.8099ZM95.5351 16.6341C94.7697 15.8495 94.3882 14.8941 94.3882 13.7507H93.8882C93.8882 15.019 94.3168 16.1013 95.1772 16.9832L95.5351 16.6341ZM94.3882 13.7507C94.3882 12.6072 94.7697 11.6504 95.5351 10.8659L95.1772 10.5167C94.3168 11.3987 93.8882 12.4824 93.8882 13.7507H94.3882ZM95.5352 10.8657C96.2977 10.0828 97.2421 9.69141 98.3859 9.69141V9.19141C97.113 9.19141 96.0376 9.63322 95.177 10.5169L95.5352 10.8657ZM98.3859 9.69141C99.5219 9.69141 100.464 10.0836 101.233 10.8714L101.59 10.5222C100.725 9.63518 99.6527 9.19141 98.3859 9.19141V9.69141ZM101.232 10.8712C102.001 11.6606 102.385 12.615 102.385 13.7507H102.885C102.885 12.4883 102.453 11.4077 101.591 10.5223L101.232 10.8712ZM102.385 13.7507C102.385 14.8939 102.002 15.8494 101.238 16.6342L101.596 16.9831C102.455 16.1014 102.885 15.0192 102.885 13.7507H102.385Z" fill="white"/>
<path fill-rule="evenodd" clip-rule="evenodd" d="M104.125 17.8755V9.62549H105.418L109.435 16.0426H109.482L109.435 14.4531V9.62549H110.499V17.8755H109.39L105.188 11.1462H105.141L105.188 12.7371V17.8755H104.125Z" fill="white"/>
<path fill-rule="evenodd" clip-rule="evenodd" d="M104.125 17.8755V9.62549H105.418L109.435 16.0426H109.482L109.435 14.4531V9.62549H110.499V17.8755H109.39L105.188 11.1462H105.141L105.188 12.7371V17.8755H104.125Z" stroke="white" stroke-width="0.5"/>
<path fill-rule="evenodd" clip-rule="evenodd" d="M147.334 41.2503H149.904V24.0614H147.334V41.2503ZM170.49 30.2531L167.543 37.7056H167.455L164.396 30.2531H161.627L166.215 40.6687L163.599 46.4629H166.28L173.349 30.2531H170.49ZM155.909 39.2978C155.069 39.2978 153.894 38.8771 153.894 37.8376C153.894 36.5121 155.357 36.0019 156.62 36.0019C157.749 36.0019 158.282 36.2467 158.968 36.5767C158.768 38.1703 157.395 39.2978 155.909 39.2978ZM156.221 29.8763C154.359 29.8763 152.432 30.6958 151.634 32.5081L153.916 33.4596C154.403 32.5081 155.311 32.1987 156.265 32.1987C157.594 32.1987 158.946 32.9948 158.968 34.4097V34.5871C158.502 34.3217 157.505 33.9243 156.287 33.9243C153.826 33.9243 151.323 35.2732 151.323 37.7936C151.323 40.0939 153.34 41.5762 155.599 41.5762C157.327 41.5762 158.282 40.8021 158.878 39.8946H158.968V41.2214H161.451V34.6311C161.451 31.5799 159.166 29.8763 156.221 29.8763ZM140.332 32.3458H136.676V26.4539H140.332C142.254 26.4539 143.345 28.0407 143.345 29.3992C143.345 30.7316 142.254 32.3458 140.332 32.3458ZM140.266 24.0601H134.106V41.2503H136.676V34.7383H140.266C143.115 34.7383 145.916 32.6786 145.916 29.3992C145.916 26.1198 143.115 24.0601 140.266 24.0601ZM106.674 39.3006C104.899 39.3006 103.412 37.8169 103.412 35.7792C103.412 33.7181 104.899 32.2124 106.674 32.2124C108.427 32.2124 109.803 33.7181 109.803 35.7792C109.803 37.8169 108.427 39.3006 106.674 39.3006ZM109.626 31.2156H109.537C108.96 30.5294 107.85 29.9079 106.453 29.9079C103.522 29.9079 100.835 32.4778 100.835 35.7792C100.835 39.0572 103.522 41.6051 106.453 41.6051C107.85 41.6051 108.96 40.9849 109.537 40.2754H109.626V41.1169C109.626 43.3554 108.427 44.5503 106.497 44.5503C104.921 44.5503 103.944 43.4214 103.544 42.4686L101.303 43.3994C101.946 44.9491 103.654 46.8548 106.497 46.8548C109.515 46.8548 112.068 45.0824 112.068 40.7622V30.2627H109.626V31.2156ZM113.844 41.2503H116.418V24.0614H113.844V41.2503ZM120.214 35.5798C120.148 33.3193 121.968 32.1684 123.277 32.1684C124.299 32.1684 125.164 32.6786 125.454 33.4087L120.214 35.5798ZM128.205 33.6301C127.716 32.3238 126.229 29.9079 123.189 29.9079C120.17 29.9079 117.661 32.2784 117.661 35.7572C117.661 39.0352 120.148 41.6051 123.476 41.6051C126.162 41.6051 127.716 39.9661 128.361 39.0132L126.363 37.6836C125.696 38.6584 124.787 39.3006 123.476 39.3006C122.168 39.3006 121.235 38.7024 120.637 37.5282L128.471 34.2942L128.205 33.6301ZM65.7807 31.7037V34.1842H71.7285C71.5522 35.5798 71.0851 36.5987 70.3755 37.3068C69.5089 38.1717 68.1546 39.1246 65.7807 39.1246C62.1171 39.1246 59.2541 36.1779 59.2541 32.5232C59.2541 28.8684 62.1171 25.9204 65.7807 25.9204C67.7564 25.9204 69.1989 26.6959 70.2639 27.6942L72.0179 25.9438C70.5299 24.5262 68.5555 23.4399 65.7807 23.4399C60.7628 23.4399 56.5454 27.5168 56.5454 32.5232C56.5454 37.5282 60.7628 41.6051 65.7807 41.6051C68.488 41.6051 70.5299 40.7182 72.1281 39.0572C73.7704 37.4182 74.2815 35.1137 74.2815 33.2533C74.2815 32.6786 74.2375 32.1464 74.1479 31.7037H65.7807ZM81.0437 39.3006C79.2691 39.3006 77.737 37.8389 77.737 35.7572C77.737 33.6521 79.2691 32.2124 81.0437 32.2124C82.8196 32.2124 84.3517 33.6521 84.3517 35.7572C84.3517 37.8389 82.8196 39.3006 81.0437 39.3006ZM81.0437 29.9079C77.8031 29.9079 75.1619 32.3678 75.1619 35.7572C75.1619 39.1246 77.8031 41.6051 81.0437 41.6051C84.2856 41.6051 86.9268 39.1246 86.9268 35.7572C86.9268 32.3678 84.2856 29.9079 81.0437 29.9079ZM93.8763 39.3006C92.1003 39.3006 90.5683 37.8389 90.5683 35.7572C90.5683 33.6521 92.1003 32.2124 93.8763 32.2124C95.6523 32.2124 97.183 33.6521 97.183 35.7572C97.183 37.8389 95.6523 39.3006 93.8763 39.3006ZM93.8763 29.9079C90.6358 29.9079 87.9946 32.3678 87.9946 35.7572C87.9946 39.1246 90.6358 41.6051 93.8763 41.6051C97.1168 41.6051 99.758 39.1246 99.758 35.7572C99.758 32.3678 97.1168 29.9079 93.8763 29.9079Z" fill="white"/>
<mask id="mask0_0_16" style="mask-type:alpha" maskUnits="userSpaceOnUse" x="13" y="10" width="19" height="35">
<path fill-rule="evenodd" clip-rule="evenodd" d="M14.3786 10.365C13.9777 10.7885 13.7407 11.4458 13.7407 12.2969V42.7064C13.7407 43.5589 13.9777 44.2148 14.3786 44.6369L14.4792 44.7373L31.5499 27.7024V27.5016V27.3009L14.4792 10.2646L14.3786 10.365Z" fill="white"/>
</mask>
<g mask="url(#mask0_0_16)">
<path fill-rule="evenodd" clip-rule="evenodd" d="M14.3786 10.365C13.9777 10.7885 13.7407 11.4458 13.7407 12.2969V42.7064C13.7407 43.5589 13.9777 44.2148 14.3786 44.6369L14.4792 44.7373L31.5499 27.7024V27.5016V27.3009L14.4792 10.2646L14.3786 10.365Z" fill="#02E0FF"/>
</g>
<mask id="mask1_0_16" style="mask-type:alpha" maskUnits="userSpaceOnUse" x="31" y="21" width="15" height="13">
<path fill-rule="evenodd" clip-rule="evenodd" d="M31.5498 27.3012V27.502V27.7027L37.2386 33.3828L37.3682 33.3113L44.1096 29.4888C46.0344 28.3957 46.0344 26.6082 44.1096 25.5165L37.3682 21.694L37.24 21.6211L31.5498 27.3012Z" fill="white"/>
</mask>
<g mask="url(#mask1_0_16)">
<path fill-rule="evenodd" clip-rule="evenodd" d="M31.5498 27.3012V27.502V27.7027L37.2386 33.3828L37.3682 33.3113L44.1096 29.4888C46.0344 28.3957 46.0344 26.6082 44.1096 25.5165L37.3682 21.694L37.24 21.6211L31.5498 27.3012Z" fill="#FFE300"/>
</g>
<mask id="mask2_0_16" style="mask-type:alpha" maskUnits="userSpaceOnUse" x="14" y="27" width="24" height="19">
<path fill-rule="evenodd" clip-rule="evenodd" d="M14.3784 44.6372C15.0122 45.3082 16.0607 45.3921 17.2414 44.7225L37.368 33.31L31.5497 27.502L14.3784 44.6372Z" fill="white"/>
</mask>
<g mask="url(#mask2_0_16)">
<path fill-rule="evenodd" clip-rule="evenodd" d="M14.3784 44.6372C15.0122 45.3082 16.0607 45.3921 17.2414 44.7225L37.368 33.31L31.5497 27.502L14.3784 44.6372Z" fill="url(#paint0_linear_0_16)"/>
</g>
<mask id="mask3_0_16" style="mask-type:alpha" maskUnits="userSpaceOnUse" x="14" y="9" width="24" height="19">
<path fill-rule="evenodd" clip-rule="evenodd" d="M14.3784 10.3651L31.5497 27.5017L37.368 21.6937L17.2414 10.2812C16.6876 9.96637 16.1626 9.81787 15.697 9.81787C15.1679 9.81787 14.7146 10.009 14.3784 10.3651Z" fill="white"/>
</mask>
<g mask="url(#mask3_0_16)">
<path fill-rule="evenodd" clip-rule="evenodd" d="M14.3784 10.3651L31.5497 27.5017L37.368 21.6937L17.2414 10.2812C16.6876 9.96637 16.1626 9.81787 15.697 9.81787C15.1679 9.81787 14.7146 10.009 14.3784 10.3651Z" fill="#00F084"/>
</g>
<defs>
<linearGradient id="paint0_linear_0_16" x1="13.8636" y1="18.5988" x2="-8.01641" y2="55.5086" gradientUnits="userSpaceOnUse">
<stop stop-color="#FF3A44"/>
<stop offset="1" stop-color="#C31162"/>
</linearGradient>
</defs>
</svg>
