<svg width="130" height="124" viewBox="0 0 130 124" fill="none" xmlns="http://www.w3.org/2000/svg">
<path fill-rule="evenodd" clip-rule="evenodd" d="M61 120C94.6894 120 122 93.1371 122 60C122 26.8629 94.6894 0 61 0C27.3106 0 0 26.8629 0 60C0 93.1371 27.3106 120 61 120Z" fill="#EEF4FD"/>
<mask id="mask0_0_104" style="mask-type:alpha" maskUnits="userSpaceOnUse" x="0" y="0" width="122" height="120">
<path fill-rule="evenodd" clip-rule="evenodd" d="M61 120C94.6894 120 122 93.1371 122 60C122 26.8629 94.6894 0 61 0C27.3106 0 0 26.8629 0 60C0 93.1371 27.3106 120 61 120Z" fill="white"/>
</mask>
<g mask="url(#mask0_0_104)">
<rect x="2.0332" y="92" width="128.1" height="32" fill="#DEE9F1"/>
</g>
<path fill-rule="evenodd" clip-rule="evenodd" d="M29.0674 44L38.48 108H86.6483L95.5753 44H29.0674Z" fill="white"/>
<path fill-rule="evenodd" clip-rule="evenodd" d="M63.3607 91.7037C69.6739 91.7037 74.7918 86.5965 74.7918 80.2963C74.7918 73.9962 69.6739 68.8889 63.3607 68.8889C57.0475 68.8889 51.9297 73.9962 51.9297 80.2963C51.9297 86.5965 57.0475 91.7037 63.3607 91.7037Z" fill="#FF366A"/>
<path d="M29.0674 45.2482L21.3359 62.6666" stroke="#DDE2EA" stroke-linecap="round" stroke-linejoin="round"/>
<path d="M95.5755 45.2482L103.48 62.6666" stroke="#DDE2EA" stroke-linecap="round" stroke-linejoin="round"/>
<path fill-rule="evenodd" clip-rule="evenodd" d="M28.8936 44H95.0236L83.6806 62.6667H42.1065L28.8936 44Z" fill="#D8D8D8"/>
<path d="M51.6602 12.0505C51.6602 12.0505 51.9002 12.9968 50.8452 14.1168C49.7903 15.2367 49.5056 17.0085 51.1116 18.0421C52.7176 19.0757 51.7638 21.3893 50.8452 22.249C49.9266 23.1086 49.0611 25.5274 51.1931 27.3477C53.3252 29.1679 51.1116 31.6561 51.1116 31.6561C51.1116 31.6561 48.9173 33.4271 50.8452 35.9703C52.7731 38.5136 51.1116 40.0505 51.1116 40.0505" stroke="#979797" stroke-linecap="round" stroke-linejoin="round"/>
<path d="M57.7672 12.0505C57.7672 12.0505 58.0071 12.9968 56.9522 14.1168C55.8972 15.2367 55.6126 17.0085 57.2185 18.0421C58.8245 19.0757 57.8708 21.3893 56.9522 22.249C56.0336 23.1086 55.1681 25.5274 57.3001 27.3477C59.4321 29.1679 57.2185 31.6561 57.2185 31.6561C57.2185 31.6561 55.0243 33.4271 56.9522 35.9703C58.8801 38.5136 57.2185 40.0505 57.2185 40.0505" stroke="#979797" stroke-linecap="round" stroke-linejoin="round"/>
<path d="M63.9177 10.0505C63.9177 10.0505 64.1748 11.0644 63.0445 12.2644C61.9142 13.4643 61.6092 15.3626 63.3299 16.4701C65.0506 17.5776 64.0287 20.0564 63.0445 20.9774C62.0603 21.8985 61.1329 24.4901 63.4173 26.4403C65.7016 28.3906 63.3299 31.0565 63.3299 31.0565C63.3299 31.0565 60.9789 32.954 63.0445 35.6789C65.1101 38.4038 63.3299 40.0505 63.3299 40.0505" stroke="#979797" stroke-linecap="round" stroke-linejoin="round"/>
<path d="M70.038 9.46002C70.038 9.46002 70.3002 10.4939 69.1476 11.7174C67.9951 12.941 67.6841 14.8766 69.4387 16.0059C71.1932 17.1352 70.1512 19.6628 69.1476 20.602C68.144 21.5412 67.1985 24.1838 69.5277 26.1724C71.857 28.1611 69.4387 30.8795 69.4387 30.8795C69.4387 30.8795 67.0414 32.8143 69.1476 35.5928C71.2539 38.3714 69.4387 40.0505 69.4387 40.0505" stroke="#979797" stroke-linecap="round" stroke-linejoin="round"/>
<path d="M76.145 9.46002C76.145 9.46002 76.4071 10.4939 75.2546 11.7174C74.102 12.941 73.791 14.8766 75.5456 16.0059C77.3001 17.1352 76.2582 19.6628 75.2546 20.602C74.251 21.5412 73.3054 24.1838 75.6347 26.1724C77.9639 28.1611 75.5456 30.8795 75.5456 30.8795C75.5456 30.8795 73.1483 32.8143 75.2546 35.5928C77.3609 38.3714 75.5456 40.0505 75.5456 40.0505" stroke="#979797" stroke-linecap="round" stroke-linejoin="round"/>
<path fill-rule="evenodd" clip-rule="evenodd" d="M100.316 5.34217C100.232 4.80105 99.7327 4.42502 99.1896 4.49456L44.6875 11.4737C44.1245 11.5458 43.7315 12.0677 43.818 12.6287V12.6287C43.9014 13.1698 44.4009 13.5459 44.9439 13.4763L99.446 6.49723C100.009 6.42514 100.402 5.90317 100.316 5.34217V5.34217Z" fill="#DDE2EA"/>
<path fill-rule="evenodd" clip-rule="evenodd" d="M99.7223 1.1227C99.6443 0.577684 99.1406 0.198118 98.5952 0.273423L44.1319 7.79347C43.5827 7.86929 43.1999 8.37727 43.2784 8.92606V8.92606C43.3564 9.47108 43.8601 9.85064 44.4055 9.77534L98.8689 2.25529C99.418 2.17947 99.8008 1.67149 99.7223 1.1227V1.1227Z" fill="#DDE2EA"/>
</svg>
