<svg width="117" height="44" viewBox="0 0 117 44" fill="none" xmlns="http://www.w3.org/2000/svg">
<path fill-rule="evenodd" clip-rule="evenodd" d="M52.4218 21.939V31.0005H48V9.00049H61V12.8777H52.4218V18.0615H59.6137V21.939H52.4218Z" fill="#009FDF"/>
<path fill-rule="evenodd" clip-rule="evenodd" d="M87.5714 26.8756C89.1529 27.627 90.786 28.0291 92.5739 28.0291C94.1036 28.0291 94.8598 27.6097 94.8598 26.7706C94.8598 26.1064 94.2068 25.5473 92.9177 25.0928C90.975 24.3762 89.7888 23.8343 89.3246 23.5021C88.0354 22.611 87.3995 21.3525 87.3995 19.7095C87.3995 16.7381 89.5826 14.7104 93.5191 14.7104C95.1693 14.7104 96.8712 14.9026 98.5211 15.3047L98.1261 19.1152C96.5447 18.6432 95.0663 18.4335 93.6911 18.4335C92.4532 18.4335 91.8345 18.783 91.8345 19.4995C91.8345 20.1113 92.4704 20.6532 93.7599 21.1077C95.6335 21.7894 96.8712 22.2787 97.4211 22.6809C98.7106 23.6071 99.3638 24.9179 99.3638 26.596C99.3638 30.0041 96.837 31.6997 92.5052 31.6997C90.3218 31.6997 88.4654 31.3502 86.9697 30.6334L87.5714 26.8756Z" fill="#009FDF"/>
<mask id="mask0_275_435" style="mask-type:alpha" maskUnits="userSpaceOnUse" x="100" y="8" width="17" height="24">
<path fill-rule="evenodd" clip-rule="evenodd" d="M100.842 8.77588H116.09V31.3501H100.842V8.77588Z" fill="white"/>
</mask>
<g mask="url(#mask0_275_435)">
<path fill-rule="evenodd" clip-rule="evenodd" d="M105.346 16.8953H105.415C106.463 15.4444 108.079 14.7103 110.245 14.7103C113.872 14.7103 116.09 17.0699 116.09 20.618V31.3501H111.586V21.9639C111.586 19.7789 110.658 18.6778 108.801 18.6778C106.497 18.6778 105.346 19.9187 105.346 22.4008V31.3501H100.842V8.77588H105.346V16.8953Z" fill="#009FDF"/>
</g>
<path fill-rule="evenodd" clip-rule="evenodd" d="M77.7924 19.2199C78.4626 18.7131 79.1503 18.4683 79.8725 18.4683C80.9037 18.4683 81.4194 18.8529 81.4194 19.6045C81.4194 20.059 81.1789 20.4611 80.7147 20.7928C80.0442 21.2648 79.0473 21.5096 77.6204 21.5096C77.1391 21.5096 76.7437 21.4745 76.4172 21.4046C76.6062 20.4956 77.0534 19.7618 77.7924 19.2199ZM80.01 27.8717C77.5171 27.8717 76.211 26.8932 76.0735 24.9354C76.7437 25.0577 77.3109 25.0928 77.7924 25.0928C80.474 25.0928 82.5711 24.5333 84.0668 23.4319C85.4074 22.4358 86.0779 21.1601 86.0779 19.5694C86.0779 17.8915 85.4589 16.6331 84.2385 15.7768C83.2243 15.0599 81.9351 14.7104 80.3365 14.7104C77.6204 14.7104 75.4717 15.6715 73.8903 17.5769C72.3947 19.3071 71.6382 21.4745 71.6382 24.0788C71.6382 26.3161 72.2402 28.099 73.4261 29.4101C74.8185 30.9306 76.9671 31.6995 79.838 31.6995C81.3715 31.6995 82.9055 31.4182 84.4324 30.8646V26.8726C82.9581 27.5403 81.484 27.8717 80.01 27.8717Z" fill="#009FDF"/>
<path fill-rule="evenodd" clip-rule="evenodd" d="M70.9277 14.4829C69.69 14.4829 68.6934 14.7976 67.9369 15.427C67.4209 15.8288 66.9227 16.5103 66.4242 17.4543H66.3555C66.1662 16.3356 66.0457 15.5668 65.9255 15.0947H61.4905C61.9889 17.3493 62.2297 19.6217 62.2297 21.8938V31.3499H66.7334V22.5057C66.7334 20.111 67.8167 18.9225 69.9825 18.9225C70.5256 18.9225 71.149 18.989 71.8195 19.1324V14.5422C71.5048 14.506 71.2019 14.4829 70.9277 14.4829Z" fill="#009FDF"/>
<mask id="mask1_275_435" style="mask-type:alpha" maskUnits="userSpaceOnUse" x="0" y="0" width="43" height="44">
<path fill-rule="evenodd" clip-rule="evenodd" d="M0 0.0556641H42.9454V43.7217H0V0.0556641Z" fill="white"/>
</mask>
<g mask="url(#mask1_275_435)">
<path fill-rule="evenodd" clip-rule="evenodd" d="M25.294 25.1733V25.8834C25.294 27.2822 24.841 28.5498 23.9843 29.549C23.5423 30.0645 21.848 31.7251 18.5762 31.4488C17.4451 31.3541 15.9981 31.101 14.7498 29.9929C14.1352 30.5502 13.405 30.9417 12.5231 31.1884C12.0581 31.3177 11.2668 31.4878 10.314 31.4878C9.11873 31.4878 7.66851 31.2208 6.28731 30.272C5.26901 29.5733 4.46544 28.1132 4.28714 26.6389C4.22004 26.0861 4.18827 25.6355 4.1869 25.2223C4.18087 22.9813 4.1869 12.9552 4.1869 12.9552V12.7889H6.78934C7.8972 12.7889 7.8972 13.6068 7.8972 14C7.8972 14.0847 7.88734 22.4689 7.8972 24.5684C7.89967 25.0304 7.94103 25.5119 8.02127 25.999C8.10782 26.5233 8.34829 26.9029 8.75665 27.1594C9.35646 27.5362 10.0762 27.6604 10.9576 27.5384C11.2956 27.4908 11.731 27.4008 12.0953 27.1198C12.5469 26.7709 12.8 26.2298 12.8687 25.4654C12.8882 25.2515 12.8879 25.0129 12.8876 24.7826L12.8885 14.2006C12.8885 13.892 12.8885 13.0719 13.9303 13.071C13.9303 13.0713 15.5476 13.0713 15.5854 13.071C15.7437 13.0741 16.0573 13.0802 16.3178 13.3392C16.6117 13.6324 16.6106 14.0232 16.6103 14.1702C16.6081 15.1892 16.607 18.6153 16.6062 21.3475C16.6056 23.015 16.6054 24.4244 16.6045 24.8708C16.604 25.3172 16.6311 25.8945 16.8486 26.3989C17.0553 26.8778 17.3692 27.1828 17.8359 27.3591C18.3722 27.5626 18.9287 27.63 19.488 27.5601C20.1486 27.4763 20.6358 27.3396 21.0215 26.9177C21.3236 26.5879 21.5013 26.1518 21.5503 25.6213C21.5884 25.2092 21.6081 24.7903 21.6084 24.3757C21.613 22.34 21.6084 13.9327 21.6084 13.9327C21.6089 13.6199 21.6092 12.7892 22.6461 12.7889C22.6461 12.7887 24.2916 12.7889 24.3475 12.7889H24.3486C24.6077 12.7926 24.8567 12.8839 25.0292 13.0574C25.2976 13.3261 25.2949 13.6815 25.294 13.7987C25.2924 14.6957 25.2938 22.7059 25.294 25.1733ZM28.2851 30.1787C27.7886 29.7376 26.6333 28.4371 26.6333 25.8906C26.6333 23.7589 27.3745 22.5667 27.7722 22.0807C27.1975 21.348 26.6169 20.0258 26.6169 18.3714C26.6169 16.5036 27.1819 15.3351 27.656 14.6834C28.5815 13.4136 30.0095 12.7962 32.0212 12.7962H40.3213V15.2518C40.3213 16.4248 39.4369 16.4248 39.1038 16.4248H32.5646C30.9824 16.4248 30.7422 16.8202 30.5984 17.0567C30.3127 17.5267 30.2199 18.0962 30.3143 18.7991C30.35 19.0631 30.4171 19.4009 30.6195 19.6719C30.9172 20.0712 31.4973 20.265 32.3931 20.265H38.8962C39.8515 20.265 40.052 20.8721 40.052 21.3817V22.7987C40.0493 22.9524 40.0424 23.2996 39.7672 23.5854C39.4602 23.9048 39.0575 23.9023 38.9222 23.9012C38.0603 23.8989 36.0448 23.9 34.4286 23.9006L32.3126 23.9012C31.9472 23.9106 31.5068 23.922 31.1319 24.0894C30.7873 24.2431 30.5778 24.4656 30.4513 24.811C30.2944 25.2379 30.2423 25.6795 30.2965 26.1248C30.3604 26.6428 30.4606 27.0213 30.7619 27.3061C31.0566 27.5846 31.3707 27.7258 31.6953 27.7258H42.1628C42.669 25.8672 42.9453 23.9112 42.9453 21.8889C42.9453 9.83063 33.3317 0.0556641 21.4725 0.0556641C9.61364 0.0556641 -0.000244141 9.83063 -0.000244141 21.8889C-0.000244141 33.9468 9.61364 43.7218 21.4725 43.7218C29.9953 43.7218 37.3581 38.6735 40.8263 31.3569H31.4699C30.2735 31.3569 29.1424 30.9384 28.2851 30.1787Z" fill="#009FDF"/>
</g>
</svg>
